<svg xmlns="http://www.w3.org/2000/svg" viewBox="0 0 160 160">
  <circle cx="20"  cy="20"  r="3.5" fill="#1A1614"/>
  <circle cx="50"  cy="20"  r="5"   fill="#1A1614"/>
  <circle cx="80"  cy="20"  r="5.5" fill="#1A1614"/>
  <circle cx="110" cy="20"  r="5"   fill="#1A1614"/>
  <circle cx="140" cy="20"  r="3.5" fill="#1A1614"/>
  <circle cx="20"  cy="50"  r="5"   fill="#1A1614"/>
  <circle cx="50"  cy="50"  r="8.5" fill="#1A1614"/>
  <circle cx="80"  cy="50"  r="11"  fill="#1A1614"/>
  <circle cx="110" cy="50"  r="8.5" fill="#1A1614"/>
  <circle cx="140" cy="50"  r="5"   fill="#1A1614"/>
  <circle cx="20"  cy="80"  r="5"   fill="#1A1614"/>
  <circle cx="50"  cy="80"  r="11"  fill="#1A1614"/>
  <circle cx="80"  cy="80"  r="17"  fill="#1A1614"/>
  <circle cx="110" cy="80"  r="11"  fill="#1A1614"/>
  <circle cx="140" cy="80"  r="7"   fill="#C49A3A"/>
  <circle cx="20"  cy="110" r="5"   fill="#1A1614"/>
  <circle cx="50"  cy="110" r="8.5" fill="#1A1614"/>
  <circle cx="80"  cy="110" r="11"  fill="#1A1614"/>
  <circle cx="110" cy="110" r="8.5" fill="#1A1614"/>
  <circle cx="140" cy="110" r="7"   fill="#C49A3A"/>
  <circle cx="20"  cy="140" r="3.5" fill="#1A1614"/>
  <circle cx="50"  cy="140" r="5"   fill="#1A1614"/>
  <circle cx="80"  cy="140" r="5.5" fill="#1A1614"/>
  <circle cx="110" cy="140" r="5"   fill="#1A1614"/>
  <circle cx="140" cy="140" r="3.5" fill="#1A1614"/>
</svg>
